<svg xmlns="http://www.w3.org/2000/svg" width="36" height="76" viewBox="0 0 36 76">
  <g id="scroll" transform="translate(-186 -482)">
    <g id="Rectangle_3" data-name="Rectangle 3" transform="translate(186 482)" fill="none" stroke="#fff" stroke-width="6">
      <path d="M17.333,0H18A18,18,0,0,1,36,18V58A18,18,0,0,1,18,76h0A18,18,0,0,1,0,58V17.333A17.333,17.333,0,0,1,17.333,0Z" stroke="none"/>
      <path d="M17.375,3H18A15,15,0,0,1,33,18V58A15,15,0,0,1,18,73h0A15,15,0,0,1,3,58V17.375A14.375,14.375,0,0,1,17.375,3Z" fill="none"/>
    </g>
    <g id="Rectangle_4" data-name="Rectangle 4" transform="translate(197 494)" fill="#fff" stroke="#707070" stroke-width="1">
      <rect width="15" height="17" rx="7.5" stroke="none"/>
      <rect x="0.5" y="0.5" width="14" height="16" rx="7" fill="none"/>
    </g>
  </g>
</svg>
